<svg preserveAspectRatio="none" width="100%" height="100%" overflow="visible" style="display: block;" viewBox="0 0 156.901 27.6289" fill="none" xmlns="http://www.w3.org/2000/svg">
<g id="Group 1000007444">
<path id="Vector" d="M58.4392 7.12507C64.4376 7.12507 68.5341 11.6288 68.5341 17.1648C68.5341 22.7007 64.4376 27.0708 58.4658 27.0708C56.1304 27.0968 53.7987 26.4359 51.8703 25.1104C51.7067 26.0386 50.8927 26.7255 49.9152 26.7255H46.9559V17.4024L46.9293 0.712878C46.9293 0.527233 47.0929 0.393568 47.2564 0.393568H50.3792C51.4899 0.367578 52.3609 1.24011 52.3609 2.302V8.92583C54.1525 7.70799 56.2977 7.12507 58.4392 7.12507ZM57.4616 22.1735C60.3106 22.1995 62.6194 20.0274 62.646 17.2724C62.646 14.6251 60.5008 12.4791 57.7888 12.3714C54.9931 12.2637 52.6881 14.3838 52.6044 17.1128C52.4941 19.8418 54.6926 22.0918 57.4616 22.1735ZM87.2633 8.00131C88.0773 8.00131 88.7543 8.63622 88.7011 9.45677V18.8096C88.7011 23.7106 84.848 27.5795 80.0706 27.5795H78.686C73.9087 27.5795 70.0289 23.7663 70.0289 18.8356V8.29092C70.0289 8.13126 70.1659 8.0273 70.299 8.0273H73.9885C74.8291 8.0273 75.4796 8.66221 75.4796 9.45677V18.9395C75.5861 21.0596 77.4346 22.6747 79.6065 22.567C81.7214 22.4334 83.3798 20.7143 83.3531 18.6202V8.26493C83.3531 8.10527 83.4901 8.00131 83.6232 8.00131H87.2595H87.2633ZM97.3316 22.2255V22.2774H106.095L103.326 26.9668C103.273 27.0708 103.189 27.1005 103.109 27.1005H92.1434C91.7098 27.1005 91.3028 26.9928 90.9224 26.7812C89.7547 26.1203 89.3211 24.6351 90.0247 23.4953L96.2932 12.8467C96.3109 12.8293 96.3198 12.812 96.3198 12.7947C96.3198 12.7427 96.2665 12.661 96.1829 12.661H90.7551C90.5915 12.661 90.485 12.5273 90.485 12.3974V8.05329C90.485 7.89364 90.6219 7.78968 90.7551 7.78968H105.49C105.517 7.81567 105.544 7.89735 105.517 7.94933L97.2137 22.0435C97.1959 22.0609 97.187 22.0782 97.187 22.0955C97.187 22.1735 97.2669 22.2292 97.324 22.2292L97.3316 22.2255ZM114.536 22.0918C114.536 22.0918 114.509 22.1178 114.509 22.1438C114.509 22.1958 114.562 22.2774 114.646 22.2774H121.374L118.605 26.9668C118.552 27.0708 118.468 27.1005 118.389 27.1005H105.334C105.308 27.1005 105.308 27.0745 105.281 27.0745C105.255 27.0485 105.228 26.9706 105.255 26.9149L113.478 12.8764C113.496 12.859 113.505 12.8417 113.505 12.8244C113.505 12.7724 113.451 12.6907 113.368 12.6907H104.817C104.791 12.6907 104.791 12.6647 104.764 12.6647C104.737 12.6387 104.711 12.557 104.737 12.5051L107.396 7.97532C107.449 7.86765 107.533 7.84166 107.613 7.84166H118.659C119.092 7.84166 119.499 7.94933 119.88 8.16097C121.047 8.82187 121.481 10.307 120.777 11.4469L114.536 22.0955V22.0918ZM140.56 7.86765C140.75 7.86765 140.914 7.89364 141.104 8.00131C141.865 8.29092 142.245 9.14118 141.945 9.85405L135.159 26.9149C135.132 27.0225 135.022 27.0745 134.942 27.0745H129.377C129.267 27.0745 129.187 27.0225 129.161 26.9149L121.561 8.0273V8.00131C121.561 7.94933 121.614 7.86765 121.698 7.86765H126.015C126.829 7.86765 127.563 8.3429 127.86 9.11147L131.226 18.4643C132.067 20.5584 132.124 21.7502 132.124 21.7502C132.287 20.6103 132.584 19.4965 133.017 18.4643L136.791 8.0273C136.817 7.91963 136.928 7.86765 137.008 7.86765H140.564H140.56ZM145.961 7.86765C147.399 7.86765 148.514 9.00751 148.514 10.359L148.54 26.7032C148.54 26.8889 148.377 27.0225 148.213 27.0225H143.436C143.246 27.0225 143.109 26.8629 143.109 26.7032L143.082 8.26493C143.082 8.05329 143.272 7.84166 143.516 7.84166H145.958V7.86765H145.961ZM145.718 0C147.372 0 148.704 1.29952 148.704 2.91463C148.704 4.52975 147.372 5.82926 145.718 5.82926C144.063 5.82926 142.732 4.52975 142.732 2.91463C142.732 1.29952 144.063 0 145.718 0ZM156.901 2.62131V26.7292C156.901 26.8889 156.764 27.0485 156.574 27.0485H151.823C151.659 27.0485 151.496 26.9149 151.496 26.7292L151.469 1.0062C151.469 0.846543 151.606 0.686888 151.796 0.686888H154.919C156.003 0.686888 156.901 1.58912 156.901 2.62131Z" fill="var(--fill-0, #82905E)" fill-opacity="0.5"/>
<path id="Vector_2" d="M30.8476 12.289C31.6084 10.3174 30.5472 8.07852 28.5084 7.38421C27.858 7.17257 27.1771 7.09089 26.4963 7.22456L2.30882 11.3533L0 17.5947L7.69099 16.2618L5.38217 22.4995C4.62144 24.471 5.68266 26.7099 7.72142 27.4042C8.37185 27.6158 9.0527 27.6975 9.73356 27.5639L33.8982 23.4054L36.207 17.1677L28.516 18.5007L30.8553 12.289H30.8476ZM20.8174 19.8336L13.1264 21.1665L15.4352 14.9288L23.1262 13.5959L20.8174 19.8336Z" fill="var(--fill-0, #82905E)" fill-opacity="0.5"/>
</g>
</svg>
