<svg preserveAspectRatio="none" width="100%" height="100%" overflow="visible" style="display: block;" viewBox="0 0 156.901 26.6114" fill="none" xmlns="http://www.w3.org/2000/svg">
<g id="Group 1000007444">
<path id="Vector" d="M58.4396 6.86263C64.4379 6.86263 68.5345 11.2005 68.5345 16.5325C68.5345 21.8646 64.4379 26.0737 58.4662 26.0737C56.1307 26.0988 53.7991 25.4622 51.8706 24.1855C51.7071 25.0795 50.8931 25.7411 49.9156 25.7411H46.9563V16.7614L46.9297 0.686621C46.9297 0.507813 47.0932 0.379072 47.2568 0.379072H50.3796C51.4903 0.354039 52.3613 1.19443 52.3613 2.21721V8.59707C54.1528 7.42409 56.2981 6.86263 58.4396 6.86263ZM57.462 21.3568C60.311 21.3818 62.6198 19.2898 62.6464 16.6363C62.6464 14.0865 60.5011 12.0194 57.7891 11.9157C54.9934 11.812 52.6884 13.854 52.6047 16.4825C52.4944 19.111 54.693 21.2781 57.462 21.3568ZM87.2637 7.70661C88.0776 7.70661 88.7547 8.31813 88.7014 9.10846V18.1168C88.7014 22.8373 84.8483 26.5637 80.0709 26.5637H78.6864C73.909 26.5637 70.0293 22.8909 70.0293 18.1418V7.98555C70.0293 7.83177 70.1662 7.73164 70.2994 7.73164H73.9889C74.8295 7.73164 75.4799 8.34316 75.4799 9.10846V18.2419C75.5864 20.2839 77.435 21.8396 79.6069 21.7358C81.7217 21.6071 83.3801 19.9513 83.3535 17.9344V7.96051C83.3535 7.80674 83.4904 7.70661 83.6236 7.70661H87.2599H87.2637ZM97.3319 21.4068V21.4569H106.096L103.326 25.9736C103.273 26.0737 103.19 26.1023 103.11 26.1023H92.1437C91.7101 26.1023 91.3031 25.9986 90.9228 25.7948C89.7551 25.1582 89.3214 23.7278 90.0251 22.6299L96.2935 12.3735C96.3113 12.3568 96.3202 12.3401 96.3202 12.3234C96.3202 12.2734 96.2669 12.1947 96.1832 12.1947H90.7554C90.5919 12.1947 90.4854 12.0659 90.4854 11.9408V7.75667C90.4854 7.6029 90.6223 7.50276 90.7554 7.50276H105.491C105.517 7.5278 105.544 7.60647 105.517 7.65654L97.214 21.2316C97.1963 21.2483 97.1874 21.265 97.1874 21.2817C97.1874 21.3568 97.2673 21.4104 97.3243 21.4104L97.3319 21.4068ZM114.536 21.2781C114.536 21.2781 114.509 21.3031 114.509 21.3282C114.509 21.3782 114.562 21.4569 114.646 21.4569H121.375L118.606 25.9736C118.553 26.0737 118.469 26.1023 118.389 26.1023H105.335C105.308 26.1023 105.308 26.0773 105.282 26.0773C105.255 26.0523 105.228 25.9772 105.255 25.9235L113.478 12.4021C113.496 12.3854 113.505 12.3687 113.505 12.352C113.505 12.302 113.452 12.2233 113.368 12.2233H104.818C104.791 12.2233 104.791 12.1983 104.764 12.1983C104.738 12.1732 104.711 12.0945 104.738 12.0445L107.396 7.68157C107.45 7.57786 107.533 7.55283 107.613 7.55283H118.659C119.093 7.55283 119.5 7.65654 119.88 7.86038C121.048 8.49693 121.481 9.9274 120.778 11.0253L114.536 21.2817V21.2781ZM140.56 7.57786C140.751 7.57786 140.914 7.6029 141.104 7.70661C141.865 7.98555 142.246 8.80448 141.945 9.49111L135.159 25.9235C135.133 26.0272 135.022 26.0773 134.942 26.0773H129.378C129.267 26.0773 129.188 26.0272 129.161 25.9235L121.561 7.73164V7.70661C121.561 7.65654 121.614 7.57786 121.698 7.57786H126.015C126.829 7.57786 127.563 8.03561 127.86 8.77588L131.226 17.7842C132.067 19.8011 132.124 20.9491 132.124 20.9491C132.288 19.8512 132.584 18.7784 133.018 17.7842L136.791 7.73164C136.818 7.62793 136.928 7.57786 137.008 7.57786H140.564H140.56ZM145.962 7.57786C147.399 7.57786 148.514 8.67574 148.514 9.97746L148.541 25.7197C148.541 25.8985 148.377 26.0272 148.213 26.0272H143.436C143.246 26.0272 143.109 25.8735 143.109 25.7197L143.082 7.96051C143.082 7.75667 143.272 7.55283 143.516 7.55283H145.958V7.57786H145.962ZM145.718 0C147.373 0 148.704 1.25165 148.704 2.80728C148.704 4.3629 147.373 5.61456 145.718 5.61456C144.064 5.61456 142.732 4.3629 142.732 2.80728C142.732 1.25165 144.064 0 145.718 0ZM156.901 2.52476V25.7447C156.901 25.8985 156.764 26.0523 156.574 26.0523H151.823C151.66 26.0523 151.496 25.9235 151.496 25.7447L151.469 0.969137C151.469 0.815362 151.606 0.661588 151.796 0.661588H154.919C156.003 0.661588 156.901 1.53059 156.901 2.52476Z" fill="var(--fill-0, #5A6540)" fill-opacity="0.5"/>
<path id="Vector_2" d="M30.8476 11.8364C31.6084 9.93743 30.5472 7.78101 28.5084 7.11227C27.858 6.90843 27.1771 6.82975 26.4963 6.95849L2.30882 10.9352L0 16.9467L7.69099 15.6628L5.38217 21.6708C4.62144 23.5697 5.68266 25.7261 7.72142 26.3949C8.37185 26.5987 9.0527 26.6774 9.73356 26.5487L33.8982 22.5434L36.207 16.5354L28.516 17.8193L30.8553 11.8364H30.8476ZM20.8174 19.1031L13.1264 20.3869L15.4352 14.379L23.1262 13.0952L20.8174 19.1031Z" fill="var(--fill-0, #5A6540)" fill-opacity="0.5"/>
</g>
</svg>
