<svg preserveAspectRatio="none" width="100%" height="100%" overflow="visible" style="display: block;" viewBox="0 0 235 473.618" fill="none" xmlns="http://www.w3.org/2000/svg">
<g id="&#235;&#170;&#169;&#236;&#151;&#133;">
<path id="Vector" d="M232.562 194.028C233.909 194.028 235 192.93 235 191.576V138.6C235 137.246 233.909 136.148 232.562 136.148V194.028Z" fill="url(#paint0_linear_0_15)"/>
<path id="Vector_2" d="M2.43794 191.603C1.09111 191.603 0 190.505 0 189.151V157.656C0 156.302 1.09111 155.204 2.43794 155.204V191.599V191.603Z" fill="url(#paint1_linear_0_15)"/>
<path id="Vector_3" d="M2.43794 149.421C1.09111 149.421 0 148.323 0 146.97V115.474C0 114.121 1.09111 113.023 2.43794 113.023V149.418V149.421Z" fill="url(#paint2_linear_0_15)"/>
<path id="Vector_4" d="M2.43792 100.239C1.09109 100.239 0 99.1414 0 97.7877V83.9342C0 82.5806 1.09109 81.4827 2.43792 81.4827V100.236V100.239Z" fill="url(#paint3_linear_0_15)"/>
<path id="Vector_5" d="M197.439 473.618H37.4204C18.9537 473.618 3.98537 458.619 3.98537 440.118V33.4998C3.98537 14.9991 18.9571 0 37.4204 0H197.439C215.905 0 230.874 14.9991 230.874 33.4998V440.114C230.874 458.615 215.905 473.614 197.439 473.614V473.618Z" fill="var(--fill-0, #524C5A)"/>
<path id="Vector_6" d="M196.64 471.912H38.2213C19.9387 471.912 5.12037 457.022 5.12037 438.651V34.962C5.12037 16.5942 19.9387 1.70429 38.2213 1.70429H196.64C214.923 1.70429 229.741 16.5942 229.741 34.9654V438.655C229.741 457.022 214.923 471.916 196.64 471.916V471.912Z" fill="var(--fill-0, black)"/>
<path id="Vector_7" d="M196.703 464.329H38.1545C24.1783 464.329 12.8514 452.947 12.8514 438.903V34.7024C12.8514 20.6615 24.1817 9.27665 38.1545 9.27665H196.703C210.679 9.27665 222.006 20.6581 222.006 34.7024V438.903C222.006 452.944 210.676 464.329 196.703 464.329Z" fill="var(--fill-0, #0A0A0A)"/>
</g>
<defs>
<linearGradient id="paint0_linear_0_15" x1="233.779" y1="194.028" x2="233.779" y2="136.148" gradientUnits="userSpaceOnUse">
<stop stop-color="#E1DCE3"/>
<stop offset="0.03" stop-color="#3D3242"/>
<stop offset="0.07" stop-color="#B1A6B7"/>
<stop offset="0.89" stop-color="#B1A6B7"/>
<stop offset="0.9" stop-color="#AEA3B4"/>
<stop offset="0.91" stop-color="#A59AAA"/>
<stop offset="0.92" stop-color="#958A9B"/>
<stop offset="0.93" stop-color="#635868"/>
<stop offset="0.94" stop-color="#3D3242"/>
<stop offset="1" stop-color="#E1DCE3"/>
</linearGradient>
<linearGradient id="paint1_linear_0_15" x1="1.22068" y1="191.603" x2="1.22068" y2="155.207" gradientUnits="userSpaceOnUse">
<stop stop-color="#E1DCE3"/>
<stop offset="0.03" stop-color="#3D3242"/>
<stop offset="0.07" stop-color="#B1A6B7"/>
<stop offset="0.89" stop-color="#B1A6B7"/>
<stop offset="0.9" stop-color="#AEA3B4"/>
<stop offset="0.91" stop-color="#A59AAA"/>
<stop offset="0.92" stop-color="#958A9B"/>
<stop offset="0.93" stop-color="#635868"/>
<stop offset="0.94" stop-color="#3D3242"/>
<stop offset="1" stop-color="#E1DCE3"/>
</linearGradient>
<linearGradient id="paint2_linear_0_15" x1="5.08435e-07" y1="149.421" x2="0.340972" y2="113.026" gradientUnits="userSpaceOnUse">
<stop stop-color="#E1DCE3"/>
<stop offset="0.03" stop-color="#3D3242"/>
<stop offset="0.07" stop-color="#B1A6B7"/>
<stop offset="0.89" stop-color="#B1A6B7"/>
<stop offset="0.9" stop-color="#AEA3B4"/>
<stop offset="0.91" stop-color="#A59AAA"/>
<stop offset="0.92" stop-color="#958A9B"/>
<stop offset="0.93" stop-color="#635868"/>
<stop offset="0.94" stop-color="#3D3242"/>
<stop offset="1" stop-color="#E1DCE3"/>
</linearGradient>
<linearGradient id="paint3_linear_0_15" x1="-1.39722e-07" y1="100.239" x2="1.22066" y2="81.4861" gradientUnits="userSpaceOnUse">
<stop stop-color="#E1DCE3"/>
<stop offset="0.03" stop-color="#3D3242"/>
<stop offset="0.07" stop-color="#B1A6B7"/>
<stop offset="0.89" stop-color="#B1A6B7"/>
<stop offset="0.9" stop-color="#AEA3B4"/>
<stop offset="0.91" stop-color="#A59AAA"/>
<stop offset="0.92" stop-color="#958A9B"/>
<stop offset="0.93" stop-color="#635868"/>
<stop offset="0.94" stop-color="#3D3242"/>
<stop offset="1" stop-color="#E1DCE3"/>
</linearGradient>
</defs>
</svg>
