<svg preserveAspectRatio="none" width="100%" height="100%" overflow="visible" style="display: block;" viewBox="0 0 124.113 21.0502" fill="none" xmlns="http://www.w3.org/2000/svg">
<g id="Group 1000007444">
<path id="Vector" d="M46.2272 5.42853C50.972 5.42853 54.2125 8.85991 54.2125 13.0777C54.2125 17.2955 50.972 20.625 46.2482 20.625C44.4008 20.6448 42.5565 20.1413 41.031 19.1314C40.9016 19.8386 40.2577 20.362 39.4845 20.362H37.1437V13.2587L37.1226 0.543136C37.1226 0.401695 37.252 0.299856 37.3813 0.299856H39.8516C40.7301 0.280055 41.4191 0.944831 41.4191 1.75388V6.80052C42.8363 5.87266 44.5332 5.42853 46.2272 5.42853ZM45.4539 16.8938C47.7075 16.9136 49.5338 15.2587 49.5549 13.1597C49.5549 11.1428 47.8579 9.50771 45.7127 9.42568C43.5012 9.34364 41.6779 10.9589 41.6117 13.0381C41.5244 15.1173 43.2635 16.8316 45.4539 16.8938ZM69.0277 6.09614C69.6716 6.09614 70.2072 6.57987 70.1651 7.20504V14.3309C70.1651 18.0649 67.1172 21.0126 63.3381 21.0126H62.2429C58.4639 21.0126 55.3949 18.1074 55.3949 14.3507V6.31679C55.3949 6.19515 55.5033 6.11594 55.6086 6.11594H58.5271C59.192 6.11594 59.7065 6.59967 59.7065 7.20504V14.4299C59.7908 16.0452 61.253 17.2757 62.9711 17.1937C64.6439 17.0918 65.9558 15.7821 65.9347 14.1866V6.29699C65.9347 6.17535 66.043 6.09614 66.1483 6.09614H69.0247H69.0277ZM76.992 16.9334V16.973H83.9242L81.7338 20.5458C81.6917 20.625 81.6255 20.6477 81.5623 20.6477H72.888C72.545 20.6477 72.2231 20.5656 71.9222 20.4044C70.9985 19.9009 70.6555 18.7693 71.2121 17.9009L76.1706 9.78777C76.1846 9.77457 76.1917 9.76137 76.1917 9.74816C76.1917 9.70856 76.1495 9.64633 76.0833 9.64633H71.7898C71.6604 9.64633 71.5762 9.54449 71.5762 9.44548V6.13574C71.5762 6.0141 71.6845 5.9349 71.7898 5.9349H83.4458C83.4669 5.9547 83.488 6.01693 83.4669 6.05654L76.8987 16.7948C76.8847 16.808 76.8777 16.8212 76.8777 16.8344C76.8777 16.8938 76.9408 16.9362 76.986 16.9362L76.992 16.9334ZM90.6007 16.8316C90.6007 16.8316 90.5797 16.8514 90.5797 16.8712C90.5797 16.9108 90.6218 16.973 90.688 16.973H96.0105L93.8201 20.5458C93.778 20.625 93.7118 20.6477 93.6486 20.6477H83.3225C83.3014 20.6477 83.3014 20.6279 83.2804 20.6279C83.2593 20.6081 83.2382 20.5487 83.2593 20.5062L89.7643 9.8104C89.7783 9.7972 89.7854 9.784 89.7854 9.7708C89.7854 9.73119 89.7432 9.66896 89.677 9.66896H82.9133C82.8922 9.66896 82.8922 9.64916 82.8712 9.64916C82.8501 9.62935 82.829 9.56712 82.8501 9.52752L84.9532 6.07634C84.9954 5.9943 85.0616 5.9745 85.1247 5.9745H93.8623C94.2053 5.9745 94.5272 6.05654 94.8281 6.21778C95.7518 6.72131 96.0948 7.85285 95.5381 8.7213L90.6007 16.8344V16.8316ZM111.187 5.9943C111.337 5.9943 111.467 6.0141 111.617 6.09614C112.219 6.31679 112.52 6.96459 112.282 7.50773L106.914 20.5062C106.893 20.5883 106.806 20.6279 106.743 20.6279H102.341C102.254 20.6279 102.191 20.5883 102.17 20.5062L96.158 6.11594V6.09614C96.158 6.05654 96.2001 5.9943 96.2663 5.9943H99.6812C100.325 5.9943 100.906 6.35639 101.141 6.94196L103.803 14.0678C104.468 15.6633 104.513 16.5713 104.513 16.5713C104.643 15.7029 104.877 14.8542 105.22 14.0678L108.205 6.11594C108.226 6.03391 108.313 5.9943 108.377 5.9943H111.19H111.187ZM115.459 5.9943C116.597 5.9943 117.478 6.86275 117.478 7.89245L117.499 20.345C117.499 20.4864 117.37 20.5883 117.241 20.5883H113.461C113.311 20.5883 113.203 20.4666 113.203 20.345L113.182 6.29699C113.182 6.13574 113.332 5.9745 113.525 5.9745H115.456V5.9943H115.459ZM115.267 0C116.576 0 117.629 0.990092 117.629 2.22064C117.629 3.45118 116.576 4.44127 115.267 4.44127C113.958 4.44127 112.905 3.45118 112.905 2.22064C112.905 0.990092 113.958 0 115.267 0ZM124.113 1.99716V20.3648C124.113 20.4864 124.004 20.6081 123.854 20.6081H120.096C119.966 20.6081 119.837 20.5062 119.837 20.3648L119.816 0.766614C119.816 0.644974 119.924 0.523334 120.075 0.523334H122.545C123.403 0.523334 124.113 1.21074 124.113 1.99716Z" fill="var(--fill-0, #5A6540)" fill-opacity="0.5"/>
<path id="Vector_2" d="M24.4013 9.36268C25.0031 7.86057 24.1636 6.15478 22.5509 5.62579C22.0364 5.46454 21.4979 5.40231 20.9593 5.50415L1.82643 8.64981L9.85369e-05 13.4051L6.08386 12.3895L4.25753 17.142C3.65577 18.6441 4.49522 20.3499 6.10793 20.8789C6.62243 21.0401 7.16101 21.1023 7.69958 21.0005L26.8144 17.8322L28.6407 13.0798L22.557 14.0953L24.4074 9.36268H24.4013ZM16.4672 15.1109L10.3834 16.1264L12.2097 11.374L18.2935 10.3584L16.4672 15.1109Z" fill="var(--fill-0, #5A6540)" fill-opacity="0.5"/>
</g>
</svg>
