<svg preserveAspectRatio="none" width="100%" height="100%" overflow="visible" style="display: block;" viewBox="0 0 57.7791 21.9909" fill="none" xmlns="http://www.w3.org/2000/svg">
<path id="Arrow 6" d="M12.0453 7.36396V6.36396H11.5665L11.2663 6.73702L12.0453 7.36396ZM57.4862 8.07107C57.8767 7.68054 57.8767 7.04738 57.4862 6.65685L51.1222 0.292893C50.7317 -0.097631 50.0985 -0.0976315 49.708 0.292893C49.3175 0.683417 49.3175 1.31658 49.708 1.70711L55.3649 7.36396L49.708 13.0208C49.3175 13.4113 49.3175 14.0445 49.708 14.435C50.0985 14.8256 50.7317 14.8256 51.1222 14.435L57.4862 8.07107ZM0.779067 21.364L1.55813 21.9909L12.8244 7.9909L12.0453 7.36396L11.2663 6.73702L0 20.737L0.779067 21.364ZM12.0453 7.36396V8.36396L56.7791 8.36396V7.36396V6.36396L12.0453 6.36396V7.36396Z" fill="var(--stroke-0, #606A46)"/>
</svg>
