<svg preserveAspectRatio="none" width="100%" height="100%" overflow="visible" style="display: block;" viewBox="0 0 423.045 422.997" fill="none" xmlns="http://www.w3.org/2000/svg">
<g id="Group 2117915632">
<path id="Ellipse 768" d="M239.263 64.5264C263.452 69.1605 286.143 79.6838 305.325 95.1642C324.508 110.645 339.59 130.604 349.235 153.275C358.881 175.946 362.792 200.629 360.623 225.136C358.454 249.644 350.271 273.22 336.8 293.776C323.328 314.333 304.984 331.235 283.391 342.986C261.799 354.737 237.625 360.974 213.01 361.144C188.396 361.314 164.101 355.412 142.278 343.962C120.455 332.511 101.777 315.865 87.8983 295.497L211.522 211.498L239.263 64.5264Z" fill="var(--fill-0, #98DA4E)"/>
<path id="Ellipse 770" d="M167.666 69.0981C191.511 61.6406 216.842 60.2617 241.356 65.0868L212.408 212.158L167.666 69.0981Z" fill="var(--fill-0, #5A6540)" fill-opacity="0.96"/>
<path id="Ellipse 769" d="M91.2881 300.315C75.5091 278.605 65.8487 253.056 63.3159 226.337C60.7832 199.617 65.4709 172.708 76.8895 148.419C88.3081 124.131 106.039 103.353 128.23 88.2572C150.421 73.1611 176.258 64.3001 203.043 62.5996L212.54 212.191L91.2881 300.315Z" fill="var(--fill-0, #3A8C00)"/>
</g>
</svg>
