<svg preserveAspectRatio="none" width="100%" height="100%" overflow="visible" style="display: block;" viewBox="0 0 279.672 563.648" fill="none" xmlns="http://www.w3.org/2000/svg">
<g id="&#235;&#170;&#169;&#236;&#151;&#133;">
<path id="Vector" d="M276.77 230.911C278.373 230.911 279.672 229.605 279.672 227.994V164.947C279.672 163.336 278.373 162.029 276.77 162.029V230.911Z" fill="url(#paint0_linear_0_15)"/>
<path id="Vector_2" d="M2.90142 228.025C1.29855 228.025 2.21723e-05 226.719 2.21723e-05 225.108V187.625C2.21723e-05 186.014 1.29855 184.707 2.90142 184.707V228.021V228.025Z" fill="url(#paint1_linear_0_15)"/>
<path id="Vector_3" d="M2.90142 177.825C1.29855 177.825 2.21723e-05 176.519 2.21723e-05 174.908V137.425C2.21723e-05 135.814 1.29855 134.507 2.90142 134.507V177.821V177.825Z" fill="url(#paint2_linear_0_15)"/>
<path id="Vector_4" d="M2.90139 119.294C1.29854 119.294 2.21723e-05 117.988 2.21723e-05 116.377V99.8895C2.21723e-05 98.2786 1.29854 96.9719 2.90139 96.9719V119.29V119.294Z" fill="url(#paint3_linear_0_15)"/>
<path id="Vector_5" d="M234.971 563.648H44.5348C22.5578 563.648 4.74405 545.798 4.74405 523.78V39.8678C4.74405 17.8502 22.5618 0 44.5348 0H234.971C256.948 0 274.762 17.8502 274.762 39.8678V523.776C274.762 545.794 256.948 563.644 234.971 563.644V563.648Z" fill="var(--fill-0, #524C5A)"/>
<path id="Vector_6" d="M234.021 561.619H45.4881C23.7302 561.619 6.09499 543.898 6.09499 522.035V41.608C6.09499 19.7487 23.7302 2.02827 45.4881 2.02827H234.021C255.779 2.02827 273.414 19.7487 273.414 41.6121V522.039C273.414 543.898 255.779 561.623 234.021 561.623V561.619Z" fill="var(--fill-0, black)"/>
<path id="Vector_7" d="M234.097 552.594H45.4099C28.777 552.594 15.297 539.049 15.297 522.335V41.2992C15.297 24.5892 28.781 11.0403 45.4099 11.0403H234.097C250.73 11.0403 264.21 24.5852 264.21 41.2992V522.335C264.21 539.045 250.726 552.594 234.097 552.594Z" fill="var(--fill-0, #0A0A0A)"/>
</g>
<defs>
<linearGradient id="paint0_linear_0_15" x1="278.219" y1="230.911" x2="278.219" y2="162.029" gradientUnits="userSpaceOnUse">
<stop stop-color="#E1DCE3"/>
<stop offset="0.03" stop-color="#3D3242"/>
<stop offset="0.07" stop-color="#B1A6B7"/>
<stop offset="0.89" stop-color="#B1A6B7"/>
<stop offset="0.9" stop-color="#AEA3B4"/>
<stop offset="0.91" stop-color="#A59AAA"/>
<stop offset="0.92" stop-color="#958A9B"/>
<stop offset="0.93" stop-color="#635868"/>
<stop offset="0.94" stop-color="#3D3242"/>
<stop offset="1" stop-color="#E1DCE3"/>
</linearGradient>
<linearGradient id="paint1_linear_0_15" x1="1.45275" y1="228.025" x2="1.45275" y2="184.711" gradientUnits="userSpaceOnUse">
<stop stop-color="#E1DCE3"/>
<stop offset="0.03" stop-color="#3D3242"/>
<stop offset="0.07" stop-color="#B1A6B7"/>
<stop offset="0.89" stop-color="#B1A6B7"/>
<stop offset="0.9" stop-color="#AEA3B4"/>
<stop offset="0.91" stop-color="#A59AAA"/>
<stop offset="0.92" stop-color="#958A9B"/>
<stop offset="0.93" stop-color="#635868"/>
<stop offset="0.94" stop-color="#3D3242"/>
<stop offset="1" stop-color="#E1DCE3"/>
</linearGradient>
<linearGradient id="paint2_linear_0_15" x1="2.27774e-05" y1="177.825" x2="0.405813" y2="134.511" gradientUnits="userSpaceOnUse">
<stop stop-color="#E1DCE3"/>
<stop offset="0.03" stop-color="#3D3242"/>
<stop offset="0.07" stop-color="#B1A6B7"/>
<stop offset="0.89" stop-color="#B1A6B7"/>
<stop offset="0.9" stop-color="#AEA3B4"/>
<stop offset="0.91" stop-color="#A59AAA"/>
<stop offset="0.92" stop-color="#958A9B"/>
<stop offset="0.93" stop-color="#635868"/>
<stop offset="0.94" stop-color="#3D3242"/>
<stop offset="1" stop-color="#E1DCE3"/>
</linearGradient>
<linearGradient id="paint3_linear_0_15" x1="2.2006e-05" y1="119.294" x2="1.45274" y2="96.976" gradientUnits="userSpaceOnUse">
<stop stop-color="#E1DCE3"/>
<stop offset="0.03" stop-color="#3D3242"/>
<stop offset="0.07" stop-color="#B1A6B7"/>
<stop offset="0.89" stop-color="#B1A6B7"/>
<stop offset="0.9" stop-color="#AEA3B4"/>
<stop offset="0.91" stop-color="#A59AAA"/>
<stop offset="0.92" stop-color="#958A9B"/>
<stop offset="0.93" stop-color="#635868"/>
<stop offset="0.94" stop-color="#3D3242"/>
<stop offset="1" stop-color="#E1DCE3"/>
</linearGradient>
</defs>
</svg>
