<svg preserveAspectRatio="none" width="100%" height="100%" overflow="visible" style="display: block;" viewBox="0 0 279.672 563.648" fill="none" xmlns="http://www.w3.org/2000/svg">
<g id="&#235;&#170;&#169;&#236;&#151;&#133;">
<path id="Vector" d="M276.77 230.911C278.373 230.911 279.672 229.605 279.672 227.994V164.947C279.672 163.336 278.373 162.029 276.77 162.029V230.911Z" fill="url(#paint0_linear_0_6)"/>
<path id="Vector_2" d="M2.90164 228.025C1.29877 228.025 0.000237374 226.719 0.000237374 225.108V187.625C0.000237374 186.014 1.29877 184.707 2.90164 184.707V228.021V228.025Z" fill="url(#paint1_linear_0_6)"/>
<path id="Vector_3" d="M2.90164 177.825C1.29877 177.825 0.000237374 176.519 0.000237374 174.908V137.425C0.000237374 135.814 1.29877 134.507 2.90164 134.507V177.821V177.825Z" fill="url(#paint2_linear_0_6)"/>
<path id="Vector_4" d="M2.90161 119.294C1.29875 119.294 0.000237374 117.988 0.000237374 116.377V99.8895C0.000237374 98.2786 1.29875 96.9719 2.90161 96.9719V119.29V119.294Z" fill="url(#paint3_linear_0_6)"/>
<path id="Vector_5" d="M234.971 563.648H44.535C22.558 563.648 4.74427 545.798 4.74427 523.78V39.8678C4.74427 17.8502 22.562 0 44.535 0H234.971C256.948 0 274.762 17.8502 274.762 39.8678V523.776C274.762 545.794 256.948 563.644 234.971 563.644V563.648Z" fill="var(--fill-0, #524C5A)"/>
<path id="Vector_6" d="M234.022 561.619H45.4883C23.7304 561.619 6.09521 543.898 6.09521 522.035V41.608C6.09521 19.7487 23.7304 2.02827 45.4883 2.02827H234.022C255.779 2.02827 273.415 19.7487 273.415 41.6121V522.039C273.415 543.898 255.779 561.623 234.022 561.623V561.619Z" fill="var(--fill-0, black)"/>
<path id="Vector_7" d="M234.098 552.594H45.4101C28.7772 552.594 15.2972 539.049 15.2972 522.335V41.2992C15.2972 24.5892 28.7812 11.0403 45.4101 11.0403H234.098C250.73 11.0403 264.21 24.5852 264.21 41.2992V522.335C264.21 539.045 250.726 552.594 234.098 552.594Z" fill="var(--fill-0, #0A0A0A)"/>
</g>
<defs>
<linearGradient id="paint0_linear_0_6" x1="278.219" y1="230.911" x2="278.219" y2="162.029" gradientUnits="userSpaceOnUse">
<stop stop-color="#E1DCE3"/>
<stop offset="0.03" stop-color="#3D3242"/>
<stop offset="0.07" stop-color="#B1A6B7"/>
<stop offset="0.89" stop-color="#B1A6B7"/>
<stop offset="0.9" stop-color="#AEA3B4"/>
<stop offset="0.91" stop-color="#A59AAA"/>
<stop offset="0.92" stop-color="#958A9B"/>
<stop offset="0.93" stop-color="#635868"/>
<stop offset="0.94" stop-color="#3D3242"/>
<stop offset="1" stop-color="#E1DCE3"/>
</linearGradient>
<linearGradient id="paint1_linear_0_6" x1="1.45297" y1="228.025" x2="1.45297" y2="184.711" gradientUnits="userSpaceOnUse">
<stop stop-color="#E1DCE3"/>
<stop offset="0.03" stop-color="#3D3242"/>
<stop offset="0.07" stop-color="#B1A6B7"/>
<stop offset="0.89" stop-color="#B1A6B7"/>
<stop offset="0.9" stop-color="#AEA3B4"/>
<stop offset="0.91" stop-color="#A59AAA"/>
<stop offset="0.92" stop-color="#958A9B"/>
<stop offset="0.93" stop-color="#635868"/>
<stop offset="0.94" stop-color="#3D3242"/>
<stop offset="1" stop-color="#E1DCE3"/>
</linearGradient>
<linearGradient id="paint2_linear_0_6" x1="0.000237979" y1="177.825" x2="0.406028" y2="134.511" gradientUnits="userSpaceOnUse">
<stop stop-color="#E1DCE3"/>
<stop offset="0.03" stop-color="#3D3242"/>
<stop offset="0.07" stop-color="#B1A6B7"/>
<stop offset="0.89" stop-color="#B1A6B7"/>
<stop offset="0.9" stop-color="#AEA3B4"/>
<stop offset="0.91" stop-color="#A59AAA"/>
<stop offset="0.92" stop-color="#958A9B"/>
<stop offset="0.93" stop-color="#635868"/>
<stop offset="0.94" stop-color="#3D3242"/>
<stop offset="1" stop-color="#E1DCE3"/>
</linearGradient>
<linearGradient id="paint3_linear_0_6" x1="0.000237207" y1="119.294" x2="1.45295" y2="96.976" gradientUnits="userSpaceOnUse">
<stop stop-color="#E1DCE3"/>
<stop offset="0.03" stop-color="#3D3242"/>
<stop offset="0.07" stop-color="#B1A6B7"/>
<stop offset="0.89" stop-color="#B1A6B7"/>
<stop offset="0.9" stop-color="#AEA3B4"/>
<stop offset="0.91" stop-color="#A59AAA"/>
<stop offset="0.92" stop-color="#958A9B"/>
<stop offset="0.93" stop-color="#635868"/>
<stop offset="0.94" stop-color="#3D3242"/>
<stop offset="1" stop-color="#E1DCE3"/>
</linearGradient>
</defs>
</svg>
