<svg preserveAspectRatio="none" width="100%" height="100%" overflow="visible" style="display: block;" viewBox="0 0 213.116 429.519" fill="none" xmlns="http://www.w3.org/2000/svg">
<g id="&#235;&#170;&#169;&#236;&#151;&#133;">
<path id="Vector" d="M210.905 175.965C212.127 175.965 213.116 174.969 213.116 173.742V125.698C213.116 124.47 212.127 123.474 210.905 123.474V175.965Z" fill="url(#paint0_linear_0_20)"/>
<path id="Vector_2" d="M2.21097 173.763C0.989524 173.763 0 172.767 0 171.539V142.976C0 141.749 0.989524 140.753 2.21097 140.753V173.76V173.763Z" fill="url(#paint1_linear_0_20)"/>
<path id="Vector_3" d="M2.21097 135.51C0.989524 135.51 0 134.514 0 133.287V104.723C0 103.496 0.989524 102.5 2.21097 102.5V135.507V135.51Z" fill="url(#paint2_linear_0_20)"/>
<path id="Vector_4" d="M2.21091 90.9066C0.9895 90.9066 0 89.9109 0 88.6833V76.1198C0 74.8922 0.9895 73.8965 2.21091 73.8965V90.9035V90.9066Z" fill="url(#paint3_linear_0_20)"/>
<path id="Vector_5" d="M179.058 429.519H33.9389C17.1916 429.519 3.61695 415.916 3.61695 399.138V30.3806C3.61695 13.6025 17.1947 0 33.9389 0H179.058C195.805 0 209.38 13.6025 209.38 30.3806V399.135C209.38 415.913 195.805 429.516 179.058 429.516V429.519Z" fill="var(--fill-0, #524C5A)"/>
<path id="Vector_6" d="M178.33 427.972H34.6614C18.0811 427.972 4.6425 414.468 4.6425 397.807V31.7061C4.6425 15.0486 18.0811 1.54504 34.6614 1.54504H178.33C194.91 1.54504 208.349 15.0486 208.349 31.7092V397.81C208.349 414.468 194.91 427.975 178.33 427.975V427.972Z" fill="var(--fill-0, black)"/>
<path id="Vector_7" d="M178.393 421.098H34.6067C21.9318 421.098 11.6596 410.776 11.6596 398.04V31.4748C11.6596 18.7412 21.9349 8.41642 34.6067 8.41642H178.393C191.068 8.41642 201.34 18.7381 201.34 31.4748V398.04C201.34 410.773 191.065 421.098 178.393 421.098Z" fill="var(--fill-0, #0A0A0A)"/>
</g>
<defs>
<linearGradient id="paint0_linear_0_20" x1="212.009" y1="175.965" x2="212.009" y2="123.474" gradientUnits="userSpaceOnUse">
<stop stop-color="#E1DCE3"/>
<stop offset="0.03" stop-color="#3D3242"/>
<stop offset="0.07" stop-color="#B1A6B7"/>
<stop offset="0.89" stop-color="#B1A6B7"/>
<stop offset="0.9" stop-color="#AEA3B4"/>
<stop offset="0.91" stop-color="#A59AAA"/>
<stop offset="0.92" stop-color="#958A9B"/>
<stop offset="0.93" stop-color="#635868"/>
<stop offset="0.94" stop-color="#3D3242"/>
<stop offset="1" stop-color="#E1DCE3"/>
</linearGradient>
<linearGradient id="paint1_linear_0_20" x1="1.10703" y1="173.763" x2="1.10703" y2="140.756" gradientUnits="userSpaceOnUse">
<stop stop-color="#E1DCE3"/>
<stop offset="0.03" stop-color="#3D3242"/>
<stop offset="0.07" stop-color="#B1A6B7"/>
<stop offset="0.89" stop-color="#B1A6B7"/>
<stop offset="0.9" stop-color="#AEA3B4"/>
<stop offset="0.91" stop-color="#A59AAA"/>
<stop offset="0.92" stop-color="#958A9B"/>
<stop offset="0.93" stop-color="#635868"/>
<stop offset="0.94" stop-color="#3D3242"/>
<stop offset="1" stop-color="#E1DCE3"/>
</linearGradient>
<linearGradient id="paint2_linear_0_20" x1="4.611e-07" y1="135.51" x2="0.309226" y2="102.503" gradientUnits="userSpaceOnUse">
<stop stop-color="#E1DCE3"/>
<stop offset="0.03" stop-color="#3D3242"/>
<stop offset="0.07" stop-color="#B1A6B7"/>
<stop offset="0.89" stop-color="#B1A6B7"/>
<stop offset="0.9" stop-color="#AEA3B4"/>
<stop offset="0.91" stop-color="#A59AAA"/>
<stop offset="0.92" stop-color="#958A9B"/>
<stop offset="0.93" stop-color="#635868"/>
<stop offset="0.94" stop-color="#3D3242"/>
<stop offset="1" stop-color="#E1DCE3"/>
</linearGradient>
<linearGradient id="paint3_linear_0_20" x1="-1.26712e-07" y1="90.9066" x2="1.107" y2="73.8996" gradientUnits="userSpaceOnUse">
<stop stop-color="#E1DCE3"/>
<stop offset="0.03" stop-color="#3D3242"/>
<stop offset="0.07" stop-color="#B1A6B7"/>
<stop offset="0.89" stop-color="#B1A6B7"/>
<stop offset="0.9" stop-color="#AEA3B4"/>
<stop offset="0.91" stop-color="#A59AAA"/>
<stop offset="0.92" stop-color="#958A9B"/>
<stop offset="0.93" stop-color="#635868"/>
<stop offset="0.94" stop-color="#3D3242"/>
<stop offset="1" stop-color="#E1DCE3"/>
</linearGradient>
</defs>
</svg>
